<mxfile host="app.diagrams.net" agent="Mozilla/5.0 (Windows NT 10.0; Win64; x64) AppleWebKit/537.36 (KHTML, like Gecko) Chrome/129.0.0.0 Safari/537.36" version="24.7.17">
  <diagram name="PÃ¡gina-1" id="Zy3ypAEwutqIXNviKDJ9">
    <mxGraphModel dx="1194" dy="750" grid="1" gridSize="10" guides="1" tooltips="1" connect="1" arrows="1" fold="1" page="1" pageScale="1" pageWidth="2339" pageHeight="3300" math="0" shadow="0">
      <root>
        <mxCell id="0" />
        <mxCell id="1" parent="0" />
        <mxCell id="h9_s0LnQ5q5esMZgo8oQ-1" value="FILME" style="whiteSpace=wrap;html=1;align=center;" vertex="1" parent="1">
          <mxGeometry x="300" y="160" width="100" height="40" as="geometry" />
        </mxCell>
        <mxCell id="h9_s0LnQ5q5esMZgo8oQ-2" value="Titulo" style="ellipse;whiteSpace=wrap;html=1;align=center;" vertex="1" parent="1">
          <mxGeometry x="320" y="60" width="100" height="40" as="geometry" />
        </mxCell>
        <mxCell id="h9_s0LnQ5q5esMZgo8oQ-3" value="Ano" style="ellipse;whiteSpace=wrap;html=1;align=center;" vertex="1" parent="1">
          <mxGeometry x="430" y="140" width="100" height="40" as="geometry" />
        </mxCell>
        <mxCell id="h9_s0LnQ5q5esMZgo8oQ-4" value="Direcao" style="ellipse;whiteSpace=wrap;html=1;align=center;" vertex="1" parent="1">
          <mxGeometry x="370" y="250" width="100" height="40" as="geometry" />
        </mxCell>
        <mxCell id="h9_s0LnQ5q5esMZgo8oQ-5" value="Codigo" style="ellipse;whiteSpace=wrap;html=1;align=center;fontStyle=4;" vertex="1" parent="1">
          <mxGeometry x="190" y="100" width="100" height="40" as="geometry" />
        </mxCell>
        <mxCell id="h9_s0LnQ5q5esMZgo8oQ-6" value="" style="endArrow=none;html=1;rounded=0;exitX=0.67;exitY=1.025;exitDx=0;exitDy=0;exitPerimeter=0;entryX=0;entryY=0;entryDx=0;entryDy=0;" edge="1" parent="1" source="h9_s0LnQ5q5esMZgo8oQ-5" target="h9_s0LnQ5q5esMZgo8oQ-1">
          <mxGeometry relative="1" as="geometry">
            <mxPoint x="270" y="180" as="sourcePoint" />
            <mxPoint x="430" y="180" as="targetPoint" />
          </mxGeometry>
        </mxCell>
        <mxCell id="h9_s0LnQ5q5esMZgo8oQ-7" value="" style="endArrow=none;html=1;rounded=0;exitX=0.5;exitY=0;exitDx=0;exitDy=0;entryX=0.44;entryY=1.025;entryDx=0;entryDy=0;entryPerimeter=0;" edge="1" parent="1" source="h9_s0LnQ5q5esMZgo8oQ-1" target="h9_s0LnQ5q5esMZgo8oQ-2">
          <mxGeometry relative="1" as="geometry">
            <mxPoint x="237" y="131" as="sourcePoint" />
            <mxPoint x="310" y="170" as="targetPoint" />
          </mxGeometry>
        </mxCell>
        <mxCell id="h9_s0LnQ5q5esMZgo8oQ-8" value="" style="endArrow=none;html=1;rounded=0;exitX=1;exitY=0.5;exitDx=0;exitDy=0;entryX=0;entryY=0.5;entryDx=0;entryDy=0;" edge="1" parent="1" source="h9_s0LnQ5q5esMZgo8oQ-1" target="h9_s0LnQ5q5esMZgo8oQ-3">
          <mxGeometry relative="1" as="geometry">
            <mxPoint x="247" y="141" as="sourcePoint" />
            <mxPoint x="320" y="180" as="targetPoint" />
          </mxGeometry>
        </mxCell>
        <mxCell id="h9_s0LnQ5q5esMZgo8oQ-9" value="" style="endArrow=none;html=1;rounded=0;exitX=0.5;exitY=1;exitDx=0;exitDy=0;entryX=0.3;entryY=0;entryDx=0;entryDy=0;entryPerimeter=0;" edge="1" parent="1" source="h9_s0LnQ5q5esMZgo8oQ-1" target="h9_s0LnQ5q5esMZgo8oQ-4">
          <mxGeometry relative="1" as="geometry">
            <mxPoint x="257" y="151" as="sourcePoint" />
            <mxPoint x="330" y="190" as="targetPoint" />
          </mxGeometry>
        </mxCell>
        <mxCell id="h9_s0LnQ5q5esMZgo8oQ-10" value="FILME" style="whiteSpace=wrap;html=1;align=center;" vertex="1" parent="1">
          <mxGeometry x="780" y="145" width="100" height="40" as="geometry" />
        </mxCell>
        <mxCell id="h9_s0LnQ5q5esMZgo8oQ-11" value="Nome" style="ellipse;whiteSpace=wrap;html=1;align=center;" vertex="1" parent="1">
          <mxGeometry x="800" y="45" width="100" height="40" as="geometry" />
        </mxCell>
        <mxCell id="h9_s0LnQ5q5esMZgo8oQ-12" value="DataNascimento" style="ellipse;whiteSpace=wrap;html=1;align=center;" vertex="1" parent="1">
          <mxGeometry x="910" y="125" width="110" height="40" as="geometry" />
        </mxCell>
        <mxCell id="h9_s0LnQ5q5esMZgo8oQ-13" value="Salario" style="ellipse;whiteSpace=wrap;html=1;align=center;" vertex="1" parent="1">
          <mxGeometry x="850" y="235" width="100" height="40" as="geometry" />
        </mxCell>
        <mxCell id="h9_s0LnQ5q5esMZgo8oQ-14" value="NContribuinte" style="ellipse;whiteSpace=wrap;html=1;align=center;fontStyle=4;" vertex="1" parent="1">
          <mxGeometry x="660" y="70" width="100" height="40" as="geometry" />
        </mxCell>
        <mxCell id="h9_s0LnQ5q5esMZgo8oQ-15" value="" style="endArrow=none;html=1;rounded=0;exitX=0.67;exitY=1.025;exitDx=0;exitDy=0;exitPerimeter=0;entryX=0;entryY=0;entryDx=0;entryDy=0;" edge="1" parent="1" source="h9_s0LnQ5q5esMZgo8oQ-14" target="h9_s0LnQ5q5esMZgo8oQ-10">
          <mxGeometry relative="1" as="geometry">
            <mxPoint x="750" y="165" as="sourcePoint" />
            <mxPoint x="910" y="165" as="targetPoint" />
          </mxGeometry>
        </mxCell>
        <mxCell id="h9_s0LnQ5q5esMZgo8oQ-16" value="" style="endArrow=none;html=1;rounded=0;exitX=0.5;exitY=0;exitDx=0;exitDy=0;entryX=0.44;entryY=1.025;entryDx=0;entryDy=0;entryPerimeter=0;" edge="1" parent="1" source="h9_s0LnQ5q5esMZgo8oQ-10" target="h9_s0LnQ5q5esMZgo8oQ-11">
          <mxGeometry relative="1" as="geometry">
            <mxPoint x="717" y="116" as="sourcePoint" />
            <mxPoint x="790" y="155" as="targetPoint" />
          </mxGeometry>
        </mxCell>
        <mxCell id="h9_s0LnQ5q5esMZgo8oQ-17" value="" style="endArrow=none;html=1;rounded=0;exitX=1;exitY=0.5;exitDx=0;exitDy=0;entryX=0;entryY=0.5;entryDx=0;entryDy=0;" edge="1" parent="1" source="h9_s0LnQ5q5esMZgo8oQ-10" target="h9_s0LnQ5q5esMZgo8oQ-12">
          <mxGeometry relative="1" as="geometry">
            <mxPoint x="727" y="126" as="sourcePoint" />
            <mxPoint x="800" y="165" as="targetPoint" />
          </mxGeometry>
        </mxCell>
        <mxCell id="h9_s0LnQ5q5esMZgo8oQ-18" value="" style="endArrow=none;html=1;rounded=0;exitX=0.5;exitY=1;exitDx=0;exitDy=0;entryX=0.3;entryY=0;entryDx=0;entryDy=0;entryPerimeter=0;" edge="1" parent="1" source="h9_s0LnQ5q5esMZgo8oQ-10" target="h9_s0LnQ5q5esMZgo8oQ-13">
          <mxGeometry relative="1" as="geometry">
            <mxPoint x="737" y="136" as="sourcePoint" />
            <mxPoint x="810" y="175" as="targetPoint" />
          </mxGeometry>
        </mxCell>
        <mxCell id="h9_s0LnQ5q5esMZgo8oQ-19" value="Idade" style="ellipse;whiteSpace=wrap;html=1;align=center;dashed=1;" vertex="1" parent="1">
          <mxGeometry x="630" y="200" width="100" height="40" as="geometry" />
        </mxCell>
        <mxCell id="h9_s0LnQ5q5esMZgo8oQ-20" value="" style="endArrow=none;html=1;rounded=0;dashed=1;dashPattern=1 2;entryX=0;entryY=1;entryDx=0;entryDy=0;" edge="1" parent="1" source="h9_s0LnQ5q5esMZgo8oQ-19" target="h9_s0LnQ5q5esMZgo8oQ-10">
          <mxGeometry relative="1" as="geometry">
            <mxPoint x="530" y="390" as="sourcePoint" />
            <mxPoint x="690" y="390" as="targetPoint" />
          </mxGeometry>
        </mxCell>
        <mxCell id="h9_s0LnQ5q5esMZgo8oQ-22" value="REALIZADOR" style="whiteSpace=wrap;html=1;align=center;" vertex="1" parent="1">
          <mxGeometry x="190" y="430" width="100" height="40" as="geometry" />
        </mxCell>
        <mxCell id="h9_s0LnQ5q5esMZgo8oQ-23" value="Nome" style="ellipse;whiteSpace=wrap;html=1;align=center;" vertex="1" parent="1">
          <mxGeometry x="210" y="330" width="100" height="40" as="geometry" />
        </mxCell>
        <mxCell id="h9_s0LnQ5q5esMZgo8oQ-24" value="DataNascimento" style="ellipse;whiteSpace=wrap;html=1;align=center;" vertex="1" parent="1">
          <mxGeometry x="320" y="410" width="110" height="40" as="geometry" />
        </mxCell>
        <mxCell id="h9_s0LnQ5q5esMZgo8oQ-26" value="NContribuinte" style="ellipse;whiteSpace=wrap;html=1;align=center;fontStyle=4;" vertex="1" parent="1">
          <mxGeometry x="60" y="420" width="100" height="40" as="geometry" />
        </mxCell>
        <mxCell id="h9_s0LnQ5q5esMZgo8oQ-27" value="" style="endArrow=none;html=1;rounded=0;exitX=1;exitY=0.5;exitDx=0;exitDy=0;entryX=0;entryY=0.25;entryDx=0;entryDy=0;" edge="1" parent="1" source="h9_s0LnQ5q5esMZgo8oQ-26" target="h9_s0LnQ5q5esMZgo8oQ-22">
          <mxGeometry relative="1" as="geometry">
            <mxPoint x="160" y="450" as="sourcePoint" />
            <mxPoint x="320" y="450" as="targetPoint" />
          </mxGeometry>
        </mxCell>
        <mxCell id="h9_s0LnQ5q5esMZgo8oQ-28" value="" style="endArrow=none;html=1;rounded=0;exitX=0.5;exitY=0;exitDx=0;exitDy=0;entryX=0.44;entryY=1.025;entryDx=0;entryDy=0;entryPerimeter=0;" edge="1" parent="1" source="h9_s0LnQ5q5esMZgo8oQ-22" target="h9_s0LnQ5q5esMZgo8oQ-23">
          <mxGeometry relative="1" as="geometry">
            <mxPoint x="127" y="401" as="sourcePoint" />
            <mxPoint x="200" y="440" as="targetPoint" />
          </mxGeometry>
        </mxCell>
        <mxCell id="h9_s0LnQ5q5esMZgo8oQ-29" value="" style="endArrow=none;html=1;rounded=0;exitX=1;exitY=0.5;exitDx=0;exitDy=0;entryX=0;entryY=0.5;entryDx=0;entryDy=0;" edge="1" parent="1" source="h9_s0LnQ5q5esMZgo8oQ-22" target="h9_s0LnQ5q5esMZgo8oQ-24">
          <mxGeometry relative="1" as="geometry">
            <mxPoint x="137" y="411" as="sourcePoint" />
            <mxPoint x="210" y="450" as="targetPoint" />
          </mxGeometry>
        </mxCell>
        <mxCell id="h9_s0LnQ5q5esMZgo8oQ-31" value="Idade" style="ellipse;whiteSpace=wrap;html=1;align=center;dashed=1;" vertex="1" parent="1">
          <mxGeometry x="210" y="520" width="100" height="40" as="geometry" />
        </mxCell>
        <mxCell id="h9_s0LnQ5q5esMZgo8oQ-32" value="" style="endArrow=none;html=1;rounded=0;dashed=1;dashPattern=1 2;entryX=0.5;entryY=0;entryDx=0;entryDy=0;exitX=0.5;exitY=1;exitDx=0;exitDy=0;" edge="1" parent="1" source="h9_s0LnQ5q5esMZgo8oQ-22" target="h9_s0LnQ5q5esMZgo8oQ-31">
          <mxGeometry relative="1" as="geometry">
            <mxPoint x="530" y="390" as="sourcePoint" />
            <mxPoint x="690" y="390" as="targetPoint" />
          </mxGeometry>
        </mxCell>
        <mxCell id="h9_s0LnQ5q5esMZgo8oQ-34" value="PRODUTOR" style="whiteSpace=wrap;html=1;align=center;" vertex="1" parent="1">
          <mxGeometry x="710" y="425" width="100" height="40" as="geometry" />
        </mxCell>
        <mxCell id="h9_s0LnQ5q5esMZgo8oQ-35" value="Nome" style="ellipse;whiteSpace=wrap;html=1;align=center;" vertex="1" parent="1">
          <mxGeometry x="730" y="325" width="100" height="40" as="geometry" />
        </mxCell>
        <mxCell id="h9_s0LnQ5q5esMZgo8oQ-36" value="DataNascimento" style="ellipse;whiteSpace=wrap;html=1;align=center;" vertex="1" parent="1">
          <mxGeometry x="840" y="405" width="110" height="40" as="geometry" />
        </mxCell>
        <mxCell id="h9_s0LnQ5q5esMZgo8oQ-37" value="NContribuinte" style="ellipse;whiteSpace=wrap;html=1;align=center;fontStyle=4;" vertex="1" parent="1">
          <mxGeometry x="580" y="415" width="100" height="40" as="geometry" />
        </mxCell>
        <mxCell id="h9_s0LnQ5q5esMZgo8oQ-38" value="" style="endArrow=none;html=1;rounded=0;exitX=1;exitY=0.5;exitDx=0;exitDy=0;entryX=0;entryY=0.25;entryDx=0;entryDy=0;" edge="1" parent="1" source="h9_s0LnQ5q5esMZgo8oQ-37" target="h9_s0LnQ5q5esMZgo8oQ-34">
          <mxGeometry relative="1" as="geometry">
            <mxPoint x="680" y="445" as="sourcePoint" />
            <mxPoint x="840" y="445" as="targetPoint" />
          </mxGeometry>
        </mxCell>
        <mxCell id="h9_s0LnQ5q5esMZgo8oQ-39" value="" style="endArrow=none;html=1;rounded=0;exitX=0.5;exitY=0;exitDx=0;exitDy=0;entryX=0.44;entryY=1.025;entryDx=0;entryDy=0;entryPerimeter=0;" edge="1" parent="1" source="h9_s0LnQ5q5esMZgo8oQ-34" target="h9_s0LnQ5q5esMZgo8oQ-35">
          <mxGeometry relative="1" as="geometry">
            <mxPoint x="647" y="396" as="sourcePoint" />
            <mxPoint x="720" y="435" as="targetPoint" />
          </mxGeometry>
        </mxCell>
        <mxCell id="h9_s0LnQ5q5esMZgo8oQ-40" value="" style="endArrow=none;html=1;rounded=0;exitX=1;exitY=0.5;exitDx=0;exitDy=0;entryX=0;entryY=0.5;entryDx=0;entryDy=0;" edge="1" parent="1" source="h9_s0LnQ5q5esMZgo8oQ-34" target="h9_s0LnQ5q5esMZgo8oQ-36">
          <mxGeometry relative="1" as="geometry">
            <mxPoint x="657" y="406" as="sourcePoint" />
            <mxPoint x="730" y="445" as="targetPoint" />
          </mxGeometry>
        </mxCell>
        <mxCell id="h9_s0LnQ5q5esMZgo8oQ-41" value="Idade" style="ellipse;whiteSpace=wrap;html=1;align=center;dashed=1;" vertex="1" parent="1">
          <mxGeometry x="730" y="515" width="100" height="40" as="geometry" />
        </mxCell>
        <mxCell id="h9_s0LnQ5q5esMZgo8oQ-42" value="" style="endArrow=none;html=1;rounded=0;dashed=1;dashPattern=1 2;entryX=0.5;entryY=0;entryDx=0;entryDy=0;exitX=0.5;exitY=1;exitDx=0;exitDy=0;" edge="1" parent="1" source="h9_s0LnQ5q5esMZgo8oQ-34" target="h9_s0LnQ5q5esMZgo8oQ-41">
          <mxGeometry relative="1" as="geometry">
            <mxPoint x="1050" y="385" as="sourcePoint" />
            <mxPoint x="1210" y="385" as="targetPoint" />
          </mxGeometry>
        </mxCell>
      </root>
    </mxGraphModel>
  </diagram>
</mxfile>
